<svg width="102" height="19" viewBox="0 0 102 19" fill="none" xmlns="http://www.w3.org/2000/svg">
<path d="M10.544 10.824V8.064H4.016V3.288H11.792V0.456H0.944V18H4.016V10.824H10.544ZM15.5932 3.768C16.5532 3.768 17.3452 2.976 17.3452 1.992C17.3452 1.008 16.5532 0.24 15.5932 0.24C14.5852 0.24 13.7932 1.008 13.7932 1.992C13.7932 2.976 14.5852 3.768 15.5932 3.768ZM14.1292 18H17.0572V6.144H14.1292V18ZM23.0103 18V11.616C23.0103 9.696 24.1143 8.448 25.9143 8.448C27.4263 8.448 28.4103 9.408 28.4103 11.4V18H31.3383V10.704C31.3383 7.632 29.8023 5.784 26.8263 5.784C25.2183 5.784 23.7783 6.48 23.0343 7.68L22.7943 6.144H20.0823V18H23.0103ZM37.7431 18.312C39.5911 18.312 41.1991 17.472 41.7031 16.248L41.9191 18H44.4871V10.8C44.4871 7.512 42.5191 5.784 39.3271 5.784C36.1111 5.784 33.9991 7.464 33.9991 10.032H36.4951C36.4951 8.784 37.4551 8.064 39.1831 8.064C40.6711 8.064 41.6311 8.712 41.6311 10.32V10.584L38.0791 10.848C35.2711 11.064 33.6871 12.432 33.6871 14.616C33.6871 16.848 35.2231 18.312 37.7431 18.312ZM38.7031 16.104C37.3831 16.104 36.6631 15.576 36.6631 14.496C36.6631 13.536 37.3591 12.936 39.1831 12.768L41.6551 12.576V13.2C41.6551 15.024 40.5031 16.104 38.7031 16.104ZM50.2916 18V11.616C50.2916 9.696 51.3956 8.448 53.1956 8.448C54.7076 8.448 55.6916 9.408 55.6916 11.4V18H58.6196V10.704C58.6196 7.632 57.0836 5.784 54.1076 5.784C52.4996 5.784 51.0596 6.48 50.3156 7.68L50.0756 6.144H47.3636V18H50.2916ZM60.8004 12.048C60.8004 15.816 63.1524 18.312 66.7524 18.312C69.8484 18.312 72.1524 16.416 72.5124 13.656H69.5604C69.2484 14.952 68.2164 15.672 66.7524 15.672C64.8804 15.672 63.7284 14.28 63.7284 12.048C63.7284 9.816 64.9764 8.4 66.8484 8.4C68.2404 8.4 69.2244 9.096 69.5604 10.44H72.4884C72.1764 7.584 69.9684 5.784 66.7284 5.784C63.2244 5.784 60.8004 8.376 60.8004 12.048ZM79.9957 18.312C83.0917 18.312 85.2517 16.752 85.7557 14.16H83.0437C82.7077 15.288 81.6517 15.912 80.0437 15.912C78.0997 15.912 76.9957 14.856 76.7797 12.768L85.7077 12.744V11.856C85.7077 8.16 83.4517 5.784 79.8997 5.784C76.4197 5.784 73.9957 8.352 73.9957 12.072C73.9957 15.744 76.4677 18.312 79.9957 18.312ZM79.9237 8.184C81.6757 8.184 82.8037 9.264 82.8037 10.896H76.8517C77.1397 9.12 78.1957 8.184 79.9237 8.184ZM92.0788 9.24L86.1268 18H89.7268L93.9988 11.592C94.6948 12.864 95.3188 13.92 96.0868 15.096L98.0547 18H101.679L95.9188 9.216L101.655 0.456H98.0788L93.9988 6.888C93.3508 5.688 92.7508 4.68 92.0308 3.6L89.8948 0.456H86.2468L92.0788 9.24Z" fill="white"/>
</svg>
